/* XPM */
static char *a5ce2ff3ae684005ccab832453854c2bDudQawXoIfUYh9I0[] = {
/* columns rows colors chars-per-pixel */
"50 50 155 2 ",
"   c #07060D",
".  c #08070D",
"X  c #07080D",
"o  c #09080E",
"O  c #0A0A13",
"+  c #0E0E18",
"@  c #110F1A",
"#  c #13111C",
"$  c #161421",
"%  c #191622",
"&  c #1C1926",
"*  c #1E1D2B",
"=  c #211A25",
"-  c #211E2C",
";  c #211F30",
":  c #1E202F",
">  c #1F2130",
",  c #24202E",
"<  c #2D242F",
"1  c #39232E",
"2  c #222334",
"3  c #2B2434",
"4  c #2D2837",
"5  c #252639",
"6  c #2C2639",
"7  c #26293B",
"8  c #2A2A3D",
"9  c #3C2431",
"0  c #312739",
"q  c #332B3C",
"w  c #44232F",
"e  c #442431",
"r  c #4B2533",
"t  c #422D3A",
"y  c #44333F",
"u  c #2C2D41",
"i  c #342D43",
"p  c #2E3146",
"a  c #3C3245",
"s  c #3F3946",
"d  c #33334A",
"f  c #3E344B",
"g  c #363750",
"h  c #393750",
"j  c #3E3853",
"k  c #463644",
"l  c #483743",
"z  c #433947",
"x  c #42364B",
"c  c #443A4C",
"v  c #493E4B",
"b  c #433B51",
"n  c #4A3D55",
"m  c #453D58",
"M  c #483F5B",
"N  c #6D3545",
"B  c #6C3E4E",
"V  c #713545",
"C  c #7C3345",
"Z  c #484147",
"A  c #4B444C",
"S  c #4D4D4D",
"D  c #504F4F",
"F  c #4D4353",
"G  c #45425D",
"H  c #4C415C",
"J  c #514556",
"K  c #544C55",
"L  c #54455B",
"P  c #4F5050",
"I  c #525152",
"U  c #595457",
"Y  c #5B545A",
"T  c #6E404D",
"R  c #4B4462",
"E  c #534663",
"W  c #534964",
"Q  c #5B4C66",
"!  c #534A69",
"~  c #5B4E6B",
"^  c #5D5262",
"/  c #54516B",
"(  c #565070",
")  c #5E5473",
"_  c #5F5978",
"`  c #615463",
"'  c #635A62",
"]  c #685B66",
"[  c #675A69",
"{  c #6C5C6C",
"}  c #735A6B",
"|  c #645473",
" . c #6D5B74",
".. c #6C5B7A",
"X. c #705E76",
"o. c #705E78",
"O. c #6E636F",
"+. c #7D616C",
"@. c #686172",
"#. c #726471",
"$. c #756277",
"%. c #736775",
"&. c #766677",
"*. c #746278",
"=. c #79627B",
"-. c #78647B",
";. c #766D7D",
":. c #7B687D",
">. c #853749",
",. c #853848",
"<. c #9E3E54",
"1. c #A03F55",
"2. c #816A7A",
"3. c #89727E",
"4. c #665D80",
"5. c #6F5F81",
"6. c #6B6283",
"7. c #6E6487",
"8. c #6F6489",
"9. c #706682",
"0. c #746386",
"q. c #786580",
"w. c #796385",
"e. c #7B6684",
"r. c #7E6886",
"t. c #7D6C86",
"y. c #7A668A",
"u. c #7F6A8B",
"i. c #7C6B8E",
"p. c #7E7580",
"a. c #786B90",
"s. c #7B7092",
"d. c #806D82",
"f. c #816E84",
"g. c #816E8A",
"h. c #816B8C",
"j. c #817083",
"k. c #837583",
"l. c #837185",
"z. c #877290",
"x. c #817195",
"c. c #877396",
"v. c #877596",
"b. c #8C7A94",
"n. c #86779A",
"m. c #907C9D",
"M. c #8D7EA1",
"N. c #92829F",
"B. c #95809F",
"V. c #9082A1",
"C. c #9685A6",
"Z. c #A194A4",
"A. c #A89BA7",
"S. c #AFA5B5",
"D. c #B6ADB8",
/* pixels */
"S S S S S S S S S S S S S S S U %.t...G p u u 8 8 8 8 8 u a L  .} Y S S S S S S S S S S S S S S S S ",
"S S S S S S S S S S S S S K #.b.9.G d p u 8 8 8 7 7 8 8 8 u i f L =.#.K S S S S S S S S S S S S S S ",
"S S S S S S S S S S S S I l.N.) d p u u 7 7 7 7 7 7 7 7 7 8 8 u i c q.d.U S S S S S S S S S S S S S ",
"S S S S S S S S S S S I j.V./ d u u 8 7 7 7 7 7 7 7 7 7 7 7 7 8 8 i c g.f.I S S S S S S S S S S S S ",
"S S S S S S S S S S S &.C._ p u 8 7 7 7 7 5 5 5 5 5 5 5 5 5 5 7 7 8 8 H m.&.S S S S S S S S S S S S ",
"S S S S S S S S S S ' B.s.g 8 7 5 5 5 5 5 5 5 5 5 5 5 5 5 5 5 5 5 5 7 i ..m.' S S S S S S S S S S S ",
"S S S S S S S S S I l.M.! u 5 5 5 5 5 5 5 5 5 5 5 5 5 5 5 5 5 5 5 5 5 7 b c.g.I S S S S S S S S S S ",
"S S S S S S S S S ' m.6.d 7 5 2 2 5 5 5 5 2 5 2 2 2 2 2 5 2 2 2 2 5 5 5 8 Q h.' S S S S S S S S S S ",
"S S S S S S S S D :.n.G 5 5 2 2 2 2 2 2 2 2 2 2 > > 2 2 2 2 > > 2 2 2 2 5 a | -.I P S S S S S S S S ",
"S S S S S S S S U z.7.p 5 2 2 2 2 2 > > > > > > > : > > > > > > > 2 2 2 2 6 H r.Y P S S S S S S S S ",
"S S S S S S S S ] v.( 7 2 2 2 2 2 : : : : : : : : : : : : : : : : , 2 2 2 2 a w.[ I I S S S S S S S ",
"S S S S S S I I $.x.G 5 2 2 , ; - * * : : * * * * * * * : * * * - - - - - 2 q ..*.I I S S S S S S S ",
"S S S S S I I U r.a.h 2 ; - * * * * - - - * * * * * * * * * * * * * * * - - 3 ~ e.U I I I S S S S S ",
"S S S S I I I Y u.8.d 2 * * * * * * * * * * * * * * * * * * * * * * * * * - , L u.Y I I I S S S S S ",
"S S S S I I I ' i.4.i ; * * * * * * - - * * * * * * * * * * * * * * * * * * - b y.` I I I I S S S S ",
"S S S S I I I [ i.) 8 * * * * - - - - - - * * * * * * * * - - - - - * * * * - f y.[ I I I I S S S S ",
"S S S I I I I { 0.R 2 * * - - - - - , - - - * * * * * * - - , - - - - - & & = a 0.{ I I I I I S S S ",
"S S S I I I I  ...j * & * - 4 v t 9 l A 3 , 2 * * * * - 3 A k 9 t c 3 - & & & q 5. .U I I I I S S S ",
"S S S I I I U X.) i * & - q p.2.V ,.T A.@.3 b i * & * , O.Z.B >.N 3.;.4 * & & 6 .. .U I I I I S S S ",
"S S I I I I U o.! 6 & & & F D.} C <.N k.^ , c W * & & , ^ j.N 1.C +.S.c & & & 3 |  .U U I I I S S S ",
"S S I I I I U ..M * & & & 3 v k e r 9 3 - * 8 E - & & = - < 1 r w y s , & % & , |  .U U I I I I S S ",
"S S I I I I Y ..j & % % % & & = = = = & & & - b * % % & & & & = = & & & % % % - Q ..Y U I I I P S S ",
"S S I I I I Y ..i % $ $ % % % % % % % % % % & 8 & $ $ % % % % % % % % % $ $ % & E ..Y U I I I P S S ",
"S S I I I I Y | 8 % $ $ $ $ $ % % % % # $ $ $ & % $ $ $ % $ % % % # $ $ $ $ $ % H ..Y U U I I P S S ",
"S S I I I I Y | 3 $ $ # $ $ $ # # # # # # # # $ $ $ $ $ # # # # # # # # # # $ % b ..Y U I I I S I I ",
"S S I I I I ^ ~ ; $ # # # # # # # # # # # # # # # # # # # # # # # # # # # # # $ f | ^ U I I I S I I ",
"S S I I I I ^ ! - # # # # # # # # # # # # # # # # # # # # # # # # # # # # # # # i | ^ U U I I I I I ",
"S S I I I I ` E - # # # # # # # # # # # # # # # # # # # # # # # # # # # # # # # 7 ) ^ U U I I I I I ",
"S S I I I I ^ H * # @ @ @ @ @ # # # # # # # # # # # # # # # # # # @ + + @ @ # # 2 ~ ^ U U U I I S S ",
"S S I I I I Q H & @ @ @ @ @ + + + + + + + + + + + + + + + + + + + + + + + + + @ & W Q U U I I I S I ",
"S S I I I I Q m % @ + + + + + + + + + + + + + + + + + + + + + + + + + + + + + + % n Q U I I I S S S ",
"S S I I I U Q b $ @ + + + + + + + + + + + + + + + + + + + + + + + + + + + + + + # i E U I I I S S S ",
"S S S I I K Q f # + + + + + + + + + + + + + + + + + + + + + + + + + + + + + + + @ 3 H U I I I S S S ",
"S S S I I K W i @ + + + O O O O + + + + + + O O + + + + + O O O O O O O O O O + + - n K I I I S S S ",
"S S I P I K E 8 + + O O O O O O O O O O O O O O O O O O O O O O O O O O O O O O + % x K I I S S S S ",
"S S S S I K H 2 + O O O O O O O O O O O O O O O O O O O O O O O O O O O O O O O O @ i J I I S S S S ",
"S S S S D J H * O O O O O O O O O O O O O O O O O O O O O O O O O O O O O O O O O + 6 J I S S S S S ",
"S S S S S J m % O O O O O O O O O O O O O O O O O O O O O O O O O O O O O O O O O O - F D S S S S S ",
"S S S S S n i # O O O O O O O O O O O O O O O O O O O O O O O O O O O O O O O O O O & n S S S S S S ",
"S S S S S x 2 + O O o O O O O O O O O O O O O O O O O O O O O O O O O O o o X O O O # b S S S S S S ",
"S S S S A a & O O O o o O O O O O O O O O O O O O O O O O O O O O O     O O O O O O @ f S S S S S S ",
"S S S S A i % O o o o o O O O O                 X           O O O O O   O O O O O O O i A S S S S S ",
"S S S S v 6 # o o . .                           X X                           O O O O 4 A S S S S S ",
"S S S S c - @ O O . . X   X X X X     X X X X X X X                 X X X X X X o o o & c S S S S S ",
"S S S A x & + o o . . X   X X X X     X X X X X X X X X X X X X X X X X X X X X o o . @ a S S S S S ",
"S S S Z a # O o o . . .     X X X X . . . . . . o X X X X X X X X X X X X X X X o . . O 0 A S S S S ",
"S S S v 6 O o o o . . X X .   X X o . . . . . . . X X X X X X X X X X X X X X X . . . . = v S S S S ",
"S S S z & o o . . .           .       . . . . .     . .                       . . . . o # s S S S S ",
"S S A q @ .           .                                                           . . . O q A S S S ",
"S S Z 4 O                                                                             . o 3 Z S S S "
};
