/* XPM */
static char *result[] = {
/* columns rows colors chars-per-pixel */
"50 50 56 1 ",
"  c #792338",
". c #3F4142",
"X c #414042",
"o c #4E4E50",
"O c #555759",
"+ c #57585A",
"@ c #58595B",
"# c #5A5C5E",
"$ c #6E4A50",
"% c #734F55",
"& c #755259",
"* c #7C595F",
"= c #626365",
"- c #6D6E70",
"; c #767779",
": c #921634",
"> c #B7022D",
", c #B8012D",
"< c #852236",
"1 c #CA0029",
"2 c #D10028",
"3 c #D20129",
"4 c #D4072D",
"5 c #D61136",
"6 c #8E3044",
"7 c #D62345",
"8 c #DF2744",
"9 c #DE3150",
"0 c #DE3A51",
"q c #E4324B",
"w c #E73950",
"e c #994451",
"r c #E34E63",
"t c #E26678",
"y c #E67B8A",
"u c #808183",
"i c #898688",
"p c #8D8E90",
"a c #97989A",
"s c #A3A3A4",
"d c #AAAAAB",
"f c #B6B7B8",
"g c #BCBDBE",
"h c #E28998",
"j c #E3A2AD",
"k c #E5B7BE",
"l c #C1C2C3",
"z c #CDCECF",
"x c #DAD5D7",
"c c #DDDBDD",
"v c #E5C5CA",
"b c #E0E0E2",
"n c #E4E5E6",
"m c #E7E8E9",
"M c #E8EAEB",
"N c None",
/* pixels */
"NNNNNNNNNNNNNNNNNNNNNNNNNNNNNNNNNNNNNNNNNNNNNNNNNN",
"NNNNNNNNNNNNNNNNNNNNNNNNNNNNNNNNNNNNNNNNNNNNNNNNNN",
"NN322222222228wwwwwwwwwwq422222222221>>>>>>>>>>>NN",
"NN742222222228wwwwwwwwwwq422222222221>>>>>>>>>>>NN",
"NN542222222228wwwwwwwwwwq422222222221,,,,,,,>>>>NN",
"NN852222222228wwwww0eeeee666666666666666   :>>>>NN",
"NN952222222228wwwwwe@####@@@@@@@@@@@@@@#o..X:,>>NN",
"NN952222222228wwww0&@@@@@@@@@+O+@@@@@@@@oXX. ,>>NN",
"NN952222222228wwww0&@@@@@@@@@-;=+@@@@@@@oXX. ,>>NN",
"NN952222222228wwww0&@@@@@@@#axbzi@@@@@@@oXX. ,>>NN",
"NN952222222228wwww0&@@@@@@OubMmMx-+@@@@@oXX. ,>>NN",
"NN952222222228wwww0&@@@@@@OsMmmmniO@@@@@oXX. ,>>NN",
"NN952222222228wwww0%O@@@@@OaMmmmnuO@@@@@oXX. ,>>NN",
"NN952222222228wwwqri;#OOO@O-zMMMg=+@@@@@oXX. ,>>NN",
"NN952222222228wwwtkncla;iddu;dgs-+@@@@@@oXX. ,>>NN",
"NN952222222228wrhcMmMMmcbMMbp+#++@@@@@@@oXX. ,>>NN",
"NN952222222228tvmMcssznmmmmMz=+@@@@@@@@@oXX. ,>>NN",
"NN95222222224tbMnkt&#dmmmmmmb-O@@@@@@@@@oXX. ,>>NN",
"NN95222222222hMxhr0*dnmmmmmmz=+@@@@@@@@@oXX. ,>>NN",
"NN952222222220yrww0dnmmmmmmMf@@@@@@@@@@@oXX. ,>>NN",
"NN952222222228wwwwhnmmmmmmmMl#@@@@@@@@@@oXX. ,>>NN",
"NN952222222228wwwrvmmmmmmbxMz=+@@@@@@@@@oXX. ,>>NN",
"NN952222222228wwwtbmmmmmbaaMc-O+@@@@@@@@oXX. ,>>NN",
"NN952222222228wqrkmmmmmba+innfp-#OO+@@@@oXX. ,>>NN",
"NN95227r952228wrkmmmmmms@O-cMMnxga;=+@@@oXX. ,>>NN",
"NN5427kmckhr79rkmmmbmmmg=O#ifxnMMmbl-+@@oXX. ,>>NN",
"NN2220bmmMMnxkvmmmvizMmmf=+O#-idzbMnuO@@oXX. ,>>NN",
"NN2224hxnMMmmMmmmkr%;zMmmd=+@+O+=;aa=@@@oXX. ,>>NN",
"NN222247rhkcmMmMkr0&O;zMmns#@@@@+OOO@@@@oXX. ,>>NN",
"NN2222221249tjvkrw0&@O;zmmx-+@@@@@+O+@@@oXX. ,>>NN",
"NN222222222128rwww0&@@Opnmc-+@@@@+-p=O@@oXX. ,>>NN",
"NN222222222228wwww0&@@Oinmc-OOOOOOaml;+@oXX. ,>>NN",
"NN222222222228wwww0&@@-annci;;;;;;dmMca#oXX. ,>>NN",
"NN222222222228wwww0&+-znnnnbbbbbbbnmmmnf=XX. ,>>NN",
"NN222222222228wwww0&+-cmmmmmmmmmmmnmmmmMz;.. ,>>NN",
"NN222222222228wwww0&+-cmmmmmmmmmmmmmmmmnMc=X ,>>NN",
"NN222222222228wwww0&+-cmmmmmmmmmmmmmmmmmndo. ,>>NN",
"NN222222222228wwww0&+-cMMMMMMMMMMMmmmmMxp.X. ,>>NN",
"NN222222222228wwww0&@=adddddddddddlmmml;oXX. ,>>NN",
"NN222222222228wwww0&@@O++++++++++OaMbs=+oXX. ,>>NN",
"NN222222222228wwww0&@@@@@@@@@@@@@Ouli@+@oXX. ,>>NN",
"NN222222222228wwww0&@@@@@@@@@@@@@@##+@@@oXX. ,>>NN",
"NN222222222228wwww0$ooooooooooooooooooooXXX. ,>>NN",
"NN222222222228wwwww6X......................X:,>>NN",
"NN222222222228wwwww0e6e66<<<<<<<<<<<<      :>>>>NN",
"NN222222222228wwwwwwwwwwq422222222221,,,,,,,>>>>NN",
"NN222222222228wwwwwwwwwwq422222222221>>>>>>>>>>>NN",
"NN322222222228wwwwwwwwwwq422222222221>>>>>>>>>>>NN",
"NNNNNNNNNNNNNNNNNNNNNNNNNNNNNNNNNNNNNNNNNNNNNNNNNN",
"NNNNNNNNNNNNNNNNNNNNNNNNNNNNNNNNNNNNNNNNNNNNNNNNNN"
};
