/* XPM */
static char *_fea7cde457e4b74c3fdfbdfd98d9bf4s4SBjVPoslxAOpV7[] = {
/* columns rows colors chars-per-pixel */
"50 50 30 1 ",
"  c gray29",
". c #4B4B4B",
"X c #4C4C4C",
"o c gray30",
"O c #4E4E4E",
"+ c gray31",
"@ c #505050",
"# c #515151",
"$ c gray32",
"% c #535353",
"& c gray33",
"* c #555555",
"= c #565656",
"- c gray34",
"; c #585858",
": c gray35",
"> c #5A5A5A",
", c #5B5B5B",
"< c gray36",
"1 c #5D5D5D",
"2 c gray37",
"3 c #5F5F5F",
"4 c #606060",
"5 c gray38",
"6 c #626262",
"7 c gray39",
"8 c #646464",
"9 c #656565",
"0 c gray40",
"q c #676767",
/* pixels */
"X.......XX.XXXXXXXXXXXXXXXXXXXXXXXXXXXXX.XXX......",
"X.......XXXXXXXXXX@@XXX@@X@@@XXXXXXXXXXXXXXX......",
"........XXXXXXXX@@@@@@@@@@@@@@@@@@@XXXXXXX........",
"......XXXXXXXXX@@@@@@@@@@@@@@@@@@@@@XXXXXXXX......",
".....XXXXXXX@@@@@@@@@@@@@@@@@@@@@@@@@@XXXXXXXX....",
".XX.XXXXXX@@@@@@@@@@&&&&&@@&&&@@@@@@@@@@XXXXXX....",
"...XXXXXXX@@@@@@@@@&&&&&&&&&&&&&@@@@@@@XXXXXXXX...",
"...XXXXXX@@@@@&&@@&&&&&&&&&&&&&&&&@@@@@@XXXXXXX...",
"..XXXXXXX@@@@@@&&&&&&&&&;;;&&;&&&&&&&@@@@@XXXXX...",
"..XXXXXX@@@@@@&&&&&;&&;;;;;;;;;;&&&&&&@@@@@XXXXX..",
".XXXX@@@@@&&&&&&;;;;;;;;;;;;;;;;&&&&&&@@@@@X@XXXXX",
"XXXXX@@@@@&&&&&;;;;;;;;<;;;;;;;;;;&&&&&@@@@@XXXXXX",
"XXXXX@@@@@&&&&;;;;;;<<<<<<<<;;;;;;;&&&&&@@@@@@XXXX",
"XXXXX@@@@&&&&&;;;;;<<<<<<<<<<<;;;;;;&&&&&@@@@@XXXX",
"XXXX@@@@&&&&&;;;;;<<<<<<<<<<<<<<<<;;;&&&&&@@@@@XXX",
"XXXX@@@@&&&;;;;<<<<<<<4<<<44<<<<<<<;;;&&&&&@@@@XXX",
"XXX@@@&&&&&;;;<<<<<<<444444444<<<<<;;;;;&&&@@@@XXX",
"XXX@@@&&&&;;;;<<<<4<444444444444<<<<<;;;&&&@@@@XXX",
"XX@@@@&&&&;;;;<<<4444444444444444<<<<<;;&&&@&@@@XX",
"X@@@@@&&&;;;;;<<44444488844444444<<<<;;;;&&&@@@@@X",
"X@@@@@&&&&;;;<<<44444488888844444<<<<<;;;&&&@@@@@@",
"X@@@@@&&&&;;;<<444444888888884444<<<<<;;;;&&@@@@@@",
"XX@@@@&&;;;;;<<4444488888888888444<<<<;;;&&&@@@@@X",
"X@@@@&&&;;;<<<<4444488888888888844<<<<;;;;&&&@@@XX",
"XX@@@&&;&;;;;<<444488888q8888884444<<<;;;;&&&@@@@@",
"XX@@@&&&;;;;;<<44448888888888884444<<<;;;;&&&@@@X@",
"XX@@@@&&;;;<;<<44448888888888884444<<<;;;;&&&@@@XX",
"X@@@@@&&;;;<;<<44448888888888844444<<<;;;;&&&@@@XX",
"X@@@@@&&&;;;<<<4444448888888444444<<<<;;;&&&&@@@XX",
"X@@@@@&&&;;;<<<<<4444488888844444<<<<<;;;&&&&@@@XX",
"X@@@@@&&&&;;;<<<<<44444488884444<<<<<<;;&&&@&@@@@@",
"XX@@@@&&&&;;;<<<<<44444444444444<<<<;;;;&&&@@@@@@X",
"XXX@@@&&&&&;;;<<<<<<44444444444<<<<<;;;;&&&&@@@@XX",
"XXX@@@&&&&&;;;<<<<<<444444444<<<<<<<;;;;&&@@@@@@XX",
"XXX@@@@@&&&&;;;<;<<<<<444<<4<<<<<<<;;&&&&&@@@@@XXX",
"XXX@@@@@@&&&&;;;<;<<<<<<<<<<<<<<<<;;;&&&&@@@@@@XXX",
"XXXXX@@@@&&&&&;;;;<<<<<<<<<<<<<;;;;;;&&&&@@@@XXXXX",
"XXXXX@@@@&&&&&&;;;;<;<<;<<<<<<;;;;;&&&&&@@@@@XXXXX",
"XXXXX@@@@@&&&&&&;;;;;;;;;;;;;;;;;;&&&&&&@@@@@XXXXX",
"XXXXX@@@@@@&&&&&&;;;;;;;;;;;;;;;&&&&&&&&@@@@@XXXXX",
"..XXXXXX@@@@@&&&&&&;&;;;;;;;;;&&&&&&&&@@@@XXXXXX..",
"..XXXXXX@@@@@&@&&&&&&&;;;;;;&&&&&&&&&@@@@XXXXXXX..",
"..XXXXXXXX@@@@@@&&&&&&&&&&&&&&&&&&&@@@@@@@XXXXXX..",
"..XXXXXXXX@@@@@@&&@&&&&&&&&&&&@@@@@@@@@XXXXXXXXX..",
"....XXXXXXXX@@@@@@@@@@&&&&&&&&&@@@@@@XXXXXXXXX....",
"......XXXXXXXX@@@@@@@@@@@@@@@@@@@@@@XXXXXXXXX.....",
"....XXXXXXXXXX@@@@@@@@@@@@@@@@@@@@@@XXXXXXXX......",
"....XXXXXXXXXXXXX@@@@@@@@@@@@@@X@@XXXXXXXXX.......",
"..........XXXXXXXXXXXX@@@@@@@@XXXXXXXXXX..........",
"..........XXXXXXXXXXXXXX@@@@XXXXXXXXXXXX.........."
};
