/* XPM */
static char *cf2a9d89780a45d9b8f2e976ad2e5c8e4ZjO1dDK44q27lHJ[] = {
/* columns rows colors chars-per-pixel */
"50 50 25 1 ",
"  c #505050",
". c #C1694F",
"X c #4B4B4B",
"o c gray31",
"O c #4C4C4C",
"+ c #4E4E4E",
"@ c gray30",
"# c gray32",
"$ c gray33",
"% c gray34",
"& c #5E5B5A",
"* c #FFDA83",
"= c #7A5E56",
"- c #AF624C",
"; c #986353",
": c #E7C57B",
"> c #726B5B",
", c #BD9F6C",
"< c #918262",
"1 c #964632",
"2 c #672113",
"3 c #D5B173",
"4 c #813625",
"5 c #BD7757",
"6 c #79301F",
/* pixels */
"OXXXXXXXXXXOOO@@@@++++++++++++++@@@@OOOOXXXXXXXXXX",
"XXXXXXXXOOOO@@@@+++ooooooooooooo+++@@@@OXXXXXXXXXX",
"XXXXXXXXOXXXOO@++oo             ooo+++@@OXXXXXXXXX",
"XXXXXXXXOXXXXXXXOO@o               oo+++OOOXXXXXXX",
"XXXXXOOOOXXXXXXOOOOO@@+o   #        oo++@@OOXXXXXX",
"XXXXOO@@OXXXXXXO@@@+@++++++oo   ##   ooo++@@OXXXXX",
"XXXOO@++OXXXOOOO o@ooooo oooo+++ooo    oo++@OOXXXX",
"XXXO@+++OXXO@@o<3,>o          ooo++@@@@+++++@OXXXX",
"XXOO@+o+XXOOOO>:**:&   ####       o++@@OXXXOOOOXXX",
"XXO@@+o+XOOo<,3****> #########     oo+@@OXXXXXXXXX",
"XOO@+oo@OOX<******:&#$$$$$$$$####   oo+@OXXXXXXXOO",
"OO@++o @O@O,******,$$$$%%%%%%$$$$##  oo+@OXXXXXXOO",
"OO@+o  @@+@<******:>$%==;;=%%%%$$$##  oo+@OXXXXXOO",
"O@++   @@+o&,::****3=;.....;&%%%%$$##  o++@OXXXOOO",
"@@+o   @+o  $&&,**:,........=%%%%%$$##  o+@OXXXO@@",
"@@+o  o@o  ##$$>:35..........&&%%%%$$## o++@OXX@@@",
"@+o  #o+o  #$$%&5............=&&%%%%$$#  o+@OXX++@",
"@+o  #oo  ##$$&;.............;&&&%%%$$## oo+OO@ooo",
"@+o   +o ##$$&;..............-&&&&%%%$$#  o+@O@oo+",
"+o  # +o ##$%;................=&&&&%%%$#  o+@O+o++",
"+o  # +  ##$&-................;&&&&%%%$$#  +@@  oo",
"+o  # o  #$$=............--161.=&&&&%%%$## o@@  oo",
"+o  #oo  #$%=...........-42221..;&&&&%%$## o++  o+",
"+o   +o  #$%&-........-12241-....;=&%%%$## o+o  ++",
"+o   +o  #$%%=.......-4261........-=%%%$## o+  ooo",
"+o   +   #$%%&;.....-624-..........-&%%$## oo  ooo",
"+o  o+   #$%%%&=-..-421.............=%%$## oo#  oo",
"+o  o+o ##$%%%&&=;.124..............;%%$## +o#  oo",
"+o  ++o ##$$%%&&&&--1-..............;%%$# oo #  oo",
"+o  @+o ###$%%%&&&=.................=%$$# oo #  oo",
"+o o@@o  ##$%%%&&&&;...............;%%$$# oo## ooo",
"+o +O@+o  #$$%%%&&&=..............-&%$$## oo## ooo",
"++o@O@+o  ##$$%%&&&=.............-&%$$##  o #  o+@",
"+++XXO@+   #$$%%%%&&-...........,<%%$$## oo #  o++",
"@++XXX@+oo  #$$%%&&&;.........53*:>$###  o@o  o+++",
"@@@XXO@@+o  ##$$%%%%&-.......5:***,>>%  o++   o+@@",
"@@OXXXO@@+o  ##$$%%%%=-...-;=&3****::,&o+@+  o+@@@",
"O@OXXXXOO@+o   #$$$%%%%===&%%%>:******<O@@@  o+@OO",
"OOXXXXXXO@@+   ###$$$%%%%%$$$$%3******<XOO@ o+@OOO",
"OOXXXXXXXO@@oo   ###$$$$$$$$$#>:*****:>XOO+oo+@OO@",
"XXXXXXXXXOO@@+o   ####$$$#### <****,<>@OOO+++@OOXX",
"XXXOOOOXXXOOO@+oo     ####### &:**:&XXOOXX++@@OOXX",
"XXXO@@+++++@@@@oooooo         o>,,>@@OOOXO++@OOOXX",
"XXXOO@@@++oo     o++ooooo  oo++@@OXOOXXXXO+@OOOXXX",
"XXXXOOOO@++o    ##     ooo+@@@@@OOOOXXXXXO@OOXXXXX",
"XXXXXXOO@@@+o      ####    +@@OOOXXXXXXXXOOOXXXXXX",
"XXXXXXXXOO@@++oo              o+@OXXXXXXXOOOXXXXXX",
"XXXXXXXXOOO@@@@+ooo    o        o+@@OXXXXOOXXXXXXX",
"XXXXXXXXXXOOOO@@+ooooo+ooooooooo+@@@OOOOXXXXXXXXXX",
"XXXXXXXXXXOOOO@@@oo+o++ooooooooo@@@@OOOOXXXXXXXXXX"
};
