/* XPM */
static char *_73817f7704d482a9b07027725d035be4o6j5L2lznrxW6Dc[] = {
/* columns rows colors chars-per-pixel */
"50 50 28 1 ",
"  c gray31",
". c #C1694F",
"X c gray30",
"o c #4B4B4B",
"O c #515151",
"+ c #535353",
"@ c #555555",
"# c #585857",
"$ c #4C4C4C",
"% c #5D5B5A",
"& c #C3694F",
"* c #FFD983",
"= c #FFDC84",
"- c #725F58",
"; c #B8664F",
": c #6D2617",
"> c #8A6154",
", c #A56653",
"< c #F0CD7F",
"1 c #D5B877",
"2 c #AA573F",
"3 c #746C5C",
"4 c #8F8265",
"5 c #B59F6D",
"6 c gray29",
"7 c #924430",
"8 c #8A7D61",
"9 c #DA9865",
/* pixels */
"$oooooooooo$$$XXXXXXXXXXXXXXXXXXXXXX$$$$oooooooooo",
"oooooooo$$$$XXXXXXX             XXXXXXX$oooooooooo",
"oooooooo$XXXXXX                    XXXXX$ooooooooo",
"ooooooooXXXXX      OOOOOOOOOOOOO     XXX$$$ooo66oo",
"ooooo$$$XX+#O    OOOOOOOOOOOOOOOOO    XXXX$$ooo6oo",
"oooo$$XX 8115-OOOOO++++++++++OOOOOOO    XXXX$ooooo",
"ooo$$XXX3<===1%OOO++++++@@@+++++++OOO    XXX$$oooo",
"ooo$XXX65=***<3O+++@@@@@@@@@@@@@+++OOO    XXX$oooo",
"oo$$X 351****<3+@@@@@@########@@@@+++OOO  XXXX$ooo",
"oo$X$8<=****=1%@@@@@->>>-%######@@@+++OOO  XXXX$oo",
"o$$X+1=******<8@##%>;.&.;,-#######@@++++OO   XX$$$",
"$$XX%1=*******<4#-;......&,-%%#####@@+++OO    X$$$",
"$$XXO5=**=****=<,;........&,%%%%####@@+++O    XX$$",
"$XXX 31<<1<****9&...........-%%%%####@@@+OO   XX$$",
"XXX  O%33%4<=*9............&,%%%%%%###@@++OOO XXXX",
"XXX  OOO+@@4<9..............;-%%%%%%###@@++OO  XXX",
"XX  OO++@@##,&...............,%%%%%%%###@@++OO  XX",
"XX  OO++@@@>;.................-%%%%%%%##@@++OO    ",
"XX  OO++@@-;..................;-%%%%%%%##@++OO   X",
"X  OO++@@#,&...............277;;>-%%%%%##@@++O  XX",
"X  OO++@@-...............;7:::2&.,>-%%%##@@++OO   ",
"X  OO++@@,&.............2::::7;....;>%%###@++OO   ",
"X  OO++@#,.............2:::7;........,-###@@+OO  X",
"X  OO++@#,............2:::2..........&,%##@@+OO XX",
"X  OO+@@#,&..........2:::2.............>##@@++O   ",
"X  OO+@@@-.........&2:::;.............&,%#@@++O   ",
"X  OO+@@##>.........7::2...............;%#@@++O   ",
"X  OO++@##%,.......2::7................;%#@@++O   ",
"X  OOO+@###%>,....;::7................&,##@+++O   ",
"X  OOO+@###%%%-,;&;::2.................>#@@++OO   ",
"X  OOO+@@###%%%%-,.27.................,%#@+++OO   ",
"X  OOO+@@###%%%%%-,&.................;-#@@++OO    ",
"XX  OO++@@###%%%%%-;.................>##@@++OO  XX",
"XX  OO+++@####%%%%%>................94@#@@+OOO  XX",
"XX  OOO++@@###%%%%%-,..............9*<4@+OOOO  XXX",
"XXX  OOO++@@@##%%%%%>.............9***<8348%   XXX",
"XXX   OO++@@@###%%%%-;...........9*****<<**1- XXXX",
"$XXX   OO++@@@###%%%%>.........;>4<*********5 XX$$",
"$$XXX   OO+++@@###%#%%,.......;-##4<*******=1OX$$$",
"$$XXX    OO+++@@######%>;...;>%###@4<******=5XX$$X",
"ooo$XX    OO+++@@@@#####%->-%#@@@@+3<******1-$$$oo",
"ooo$XXX    OO+++@@@@@######@#@@@@@O4****=58%$X$$oo",
"ooo$XXXX    OOOO+++@@@@@@@@@@@++++O8*****86XX$$$oo",
"ooo$$XXXXX   OOO++++++@@@@@@@++++++%1===1%XX$$$ooo",
"oooo$$$$XXX   OOOOO++++++++++++OOOO -515-$X$$ooooo",
"oooooo$$XXXX    OOOOOOOO++++OOOOOO    OX$X$$oooooo",
"oooooooo$$XXXX     OOOO OOOOOOOO    XXXX$$$$oo66oo",
"oooooooo$$$XXXXX                  XXXXX$$$$ooo66oo",
"oooooooooo$$$$XXX     X         XXXX$$$$oooooooooo",
"oooooooo6o$$$$XXX  X XX         XXXX$$$$oooooooooo"
};
