/* XPM */
static char *_698d374cd644562b68bce6ea43e922aZFmWuW6OYxPBNmhR[] = {
/* columns rows colors chars-per-pixel */
"50 50 31 1 ",
"  c #C1694F",
". c #4B4B4B",
"X c gray31",
"o c #515151",
"O c #4E4E4E",
"+ c #4C4C4C",
"@ c gray30",
"# c #505050",
"$ c #535353",
"% c #555555",
"& c #585858",
"* c #5E5C5B",
"= c #FED883",
"- c #736057",
"; c #FFDB84",
": c #B8654D",
"> c #978865",
", c #A96652",
"< c #8C6154",
"1 c #954632",
"2 c #D3B576",
"3 c #682214",
"4 c #B29D6C",
"5 c #EDC97D",
"6 c #9E6452",
"7 c #AA573F",
"8 c #7C725D",
"9 c #7C3221",
"0 c #D18B5F",
"q c #E4A96D",
"w c #C87655",
/* pixels */
"+..........+++@@+.....+@OOOOOOOO@@@@++++..........",
"........++++@@@+........@OXXXXXXOOO@@@@+..........",
"........+@@@OOO+.......+.+O#####XXXOOO@@+.........",
"........@@@OOX@...+++++@+++O#ooo###XXOOO+++.......",
".....+++@OOOXX...+@@@.++@@@@@Xoooo##XXOO@@++......",
"....++@@OOXX#@.++.@@o>4>$OOOO@O#oooo#XXXOO@@+.....",
"...++@OOXXX#X++@O8444=;=>XX#XOOOXoooo##XXOO@++....",
"...+@OOXX###@+@+85;;===;2%#####XOO#ooo##XXOO@+....",
"..++@OXXX#oX@@O@>;=====;4$ooooo##XOXoooo#XOOO@+...",
"..+@@OXX#ooO@OXO>=;===;2-$$o$$ooo#XXOXooo#XOOO@+..",
".++@OXX#ooX@OX##&45===;>$%$$$$$oooo#XXO#oo#XXO@+++",
"++@OOX##ooOOX#oo$$*2;=;2&%%%%%$$$ooo##XOOX#XXXO+++",
"++@OX#oooXX##oo$$%$>;;=2-----%%%%$$ooo#XO@@X#XO@++",
"+@OO#ooo#OX#oo$$%%%82q0w    :6-&%%$$oo##XO@+@OO@++",
"@@OX#oooXX#oo$$%%*<,          ,*&%%$$oo#XOO@+.+@@@",
"@@OX#oo#OXoo$$%&<:             <&&&%$$oo#XO@+...+@",
"@OX#oooOX#oo$%&<               ,*&&%%$$o#XO@+....+",
"@OX#ooXO#oo$%%-                :*&&&%%$oo#XO@+....",
"@OX#o#OX#oo$%&6                ,*&&&&%$$o#XO@+....",
"OX#ooXX#oo$%%&6                ,**&&&%$$ooXOO@....",
"OX#o#OX#oo$%&&6                6**&&&%%$oo#OO@+...",
"OX##OOX#o$$%&&-                6***&&&%$$o#OO@....",
"OX#O@OXoo$%%&&*6       :771111:,***&&&%$$o#XO@+..+",
"OXO@@OXoo$$%&&&-:    7193333331:-**&&&%$$o#XO@+..@",
"OX@+@OXoo$$%&&&*<  :1333911771: <***&&%$$o#XO@+.@X",
"O@.+@OX#o$$%&&&**,:93917:       :-**&&%%$o#XO@+@XX",
"@...@OX#o$%%&&***<:91:           ,**&&%%$o#X@++OXX",
"+..+@O##o$%%%&&**- :              <&&&%$$ooX@@O#XX",
"...+@OX#oo$%%&&**-                ,*&&%$$o#X@@##XX",
"...+@OX##o$$%&&**-                :-&&%$ooXXOXo#XX",
"...++@OX#o$$%&&&*<                 -&%%$ooXOXooXXX",
"....+@OX#o$$%&&&&<                :*&%$$o#XO#o#XXX",
".....+@OXoo$%%&&&<                <&%%$oo#X#oo#XO@",
"+....+@OX#oo$%%&&-               <&%%$$o#XOooo#XOO",
"@@+..+@@X#oo$$%%&*,            ,-&%%$$o#XX#oo#XOOO",
"@@O+.++@OX#oo$$%%%-:        00-&&%%$$$o#X#ooo#XO@@",
"@@OXO@++@OX#oo$$%%&*<,,,6,q5=58%%%$$oo#XXooo#XO@@@",
"+@@OX#X@@OXX#oo$$%%%&&&&&-5;==>$%$$oo#XX#oo##XO@++",
"++@OOX##XOXX##oo$$%%%%%%%&2;=;2-&ooo#XXXoo##XO@+++",
"++@@OX#####OXXX#o$$$$$$%%o4;===54&###XO#oo#XXO@++@",
"...+@OXX##ooXOXX#ooo$$$$$85====;=>OXOOOo#XXOO@++..",
"...+@OOXX##oooXXX##ooooo%2;======>+O@@XoXXXO@@++..",
"...+@@OOXX##ooo#XXX###o#&2;=;==;2-+@@O##XXOO@+++..",
"...++@@@OOXX#oooo#XXXXXXX>=;5>>>-++++X#XOOO@+++...",
"....++++@OOX##oooooX@@OOOo8>8O...+++@XXXO@@++.....",
"......++@@@OX###ooooX@@+@@...+++++.+OXOO@@++......",
"........++@@OOXX###oo#O+++++++.....@OO@@++++......",
"........+++@@@@OXXX####O@..+......+@@@@++++.......",
"..........++++@@OXXXXXXXX@........+@++++..........",
"..........++++@@@XXOXOOXXXO+.....+@@++++.........."
};
