/* XPM */
static char *_f6ae1f6368c4becaaba9c0b7761be85Fd594x5N96vhZJ8p[] = {
/* columns rows colors chars-per-pixel */
"50 50 188 2 ",
"   c #4B4B4B",
".  c gray31",
"X  c #4E4E4E",
"o  c #505050",
"O  c gray30",
"+  c #4C4C4C",
"@  c #515151",
"#  c gray32",
"$  c #535353",
"%  c gray33",
"&  c #555555",
"*  c #EDD87A",
"=  c #231815",
"-  c #C7151B",
";  c #C1141A",
":  c #C1AB8D",
">  c #B7A287",
",  c #BEA68A",
"<  c #EAD579",
"1  c #B8161B",
"2  c #FFE3BB",
"3  c #565656",
"4  c #D2BE6B",
"5  c #93793A",
"6  c #4A4A49",
"7  c #A5883F",
"8  c #8D7336",
"9  c #F6DAB3",
"0  c #CFB999",
"q  c #EDD3AD",
"w  c #54524E",
"e  c #AC9B5C",
"r  c #C6B263",
"t  c #D5BC9A",
"y  c #C5AF90",
"u  c #E8CEAA",
"i  c #413326",
"p  c #CBB767",
"a  c #DCC872",
"s  c #A0833C",
"d  c #B09A80",
"f  c #997D3A",
"g  c #C8B291",
"h  c #C5C1BC",
"j  c #F9DDB6",
"k  c #5E5A4E",
"l  c #AA9756",
"z  c #9D8A77",
"x  c #57453E",
"c  c #795E33",
"v  c #AA957A",
"b  c #FCE0B8",
"n  c #AF151A",
"m  c #F1D7B2",
"M  c #CDB494",
"N  c #585959",
"B  c #85725E",
"V  c #281C17",
"C  c #58554E",
"Z  c #BBAA62",
"A  c #BFA75E",
"S  c #BD9C48",
"D  c #E3CAA6",
"F  c #91836F",
"G  c #B49442",
"H  c #953125",
"J  c #B49E82",
"K  c #DCC3A0",
"L  c #D8C09E",
"P  c #96211F",
"I  c #515152",
"U  c #32251D",
"Y  c #655E4F",
"T  c #E6D176",
"R  c #58534A",
"E  c #D6C36E",
"W  c #A49356",
"Q  c #97181D",
"!  c #7F7365",
"~  c #A18D5A",
"^  c #856E3C",
"/  c #852221",
"(  c #593B35",
")  c #7A6A5D",
"_  c #A41C1E",
"`  c #751B1F",
"'  c #893235",
"]  c #847951",
"[  c #6C2F2D",
"{  c #7B6354",
"}  c #B69B58",
"|  c #A43925",
" . c #9A7E65",
".. c #AC924C",
"X. c #D1ABA4",
"o. c #796537",
"O. c #9B8150",
"+. c #7B2924",
"@. c #AD8D40",
"#. c #E8CAA5",
"$. c #A73021",
"%. c #887C78",
"&. c #E0C6A3",
"*. c #893925",
"=. c #793F25",
"-. c #A49070",
";. c #C3B6A4",
":. c #746C4E",
">. c #703836",
",. c #E1CC74",
"<. c #7E724E",
"1. c #CAAE57",
"2. c #B79847",
"3. c #AE1D1C",
"4. c #826933",
"5. c #915438",
"6. c #AA7F5B",
"7. c #615246",
"8. c #544224",
"9. c #D0AB88",
"0. c #95794E",
"q. c #BEA07E",
"w. c #876F6D",
"e. c #98856C",
"r. c #E0D2BC",
"t. c #6A5847",
"y. c #6C654F",
"u. c #544D4B",
"i. c #BFAE64",
"p. c #695B3E",
"a. c #70675C",
"s. c #9D3F36",
"d. c #3B2C1D",
"f. c #C5AB5B",
"g. c #AA876A",
"h. c #DC9E9B",
"j. c #B69673",
"k. c #82463F",
"l. c #886437",
"z. c #4A3A2B",
"x. c #71512C",
"c. c #745940",
"v. c #D8D4CF",
"b. c #6B2623",
"n. c #841519",
"m. c #9A928B",
"M. c #CCC8C3",
"N. c #B3A261",
"B. c #8C7E6B",
"V. c #524F4B",
"C. c #957041",
"Z. c #A68F7A",
"A. c #A96245",
"S. c #9E874C",
"D. c #876D34",
"F. c #F8C8C6",
"G. c #B97A76",
"H. c #9F510F",
"J. c #735634",
"K. c #C78C64",
"L. c #E7E7E7",
"P. c #E3E2E2",
"I. c #D2CFCD",
"U. c #531716",
"Y. c #EBEBEA",
"T. c #AB2423",
"R. c #925F49",
"E. c #B5A35A",
"W. c #A7503E",
"Q. c #CD8D8A",
"!. c #8A674F",
"~. c #AEA59C",
"^. c #885A4F",
"/. c #916E5B",
"(. c #A1730A",
"). c #FFE6BD",
"_. c #F4F4F5",
"`. c #5F4B25",
"'. c #BBAD99",
"]. c #E6ADAB",
"[. c #F5C4C2",
"{. c #BA9B90",
"}. c #F7C7C5",
"|. c #EFBAB8",
" X c #B2AFAE",
".X c #E7E5E1",
"XX c #872B29",
"oX c white",
/* pixels */
"+                     + + + O O O O X X X X X X X X X X X X X X O O O O + + + +                     ",
"                + + + + O O O O X X X . . . . . . . . . . . . . X X X O O O O +                     ",
"                + O O O X X X . . . . o o o o o o o o o o o o o . . . X X X O O +                   ",
"                O O O X X . . o o o o @ @ @ @ @ @ @ @ @ @ @ @ @ o o o . . X X X + + +       6 6     ",
"          + + + O X X X . o o o o @ @ # # # # # # # # # @ @ @ @ @ @ o o . . X X O O + +       6     ",
"        + + O O X X . . o o @ @ @ @ # $ $ # I I I # # $ $ # # # # # @ @ o . . . X X O O +           ",
"      + + O X X . . . o @ # # # # # o . R Y y.:.:.y.k w . # % % $ $ # # @ o o . . X X O + +         ",
"      + O X X . . o o @ # # $ $ # w :.e p a ,.T T ,.E i.~ y.@ % % % $ # # @ o o . . X X O +         ",
"    + + O X . . . o @ @ # # $ # k e T * * < < < < < < * * a e k $ & % $ $ # @ @ o . X X X O +       ",
"    + O O X . . o @ # # $ $ $ k i.* < ,.,.< < < < < < < 4 ,.* r Y $ & % $ $ # # @ o . X X X O +     ",
"  + + O X . . . X . X @ % % w N.* E p r r T * * * * < * p i.4 * Z k & & % % $ $ # @ o . . X O + + + ",
"+ + O X X X   R ! a.v a.# I ] T < a p Z p a p A A p a E 4 Z 4 < < e C 3 & % # w w + O . . . X + + + ",
"+ + O X + C d v u L t L k V.Z * < i.N.C.5.| T.3.3.T.| 5...l r r < T ] # 3 $ a.: Z.F ! 6 . . X O + + ",
"+ O X + ! > K q y j : m ! p.4 4 a C.H n n T.s.$.$.| $._ P *.O.E.< < } R 3 % g t L m > B.C O X O + + ",
"O O X O g j : j y j y u ) ^ 4 e R.H W.A.6.f.a 4 E a 4 A } A.*.c 4 < f.p.& C d d 9 : D K B.Y O O O O ",
"O O X V.0 2 g q , g e.> : ~ l O.l.} E E...f.1.1.1.1.1.p 4 E A ~ l A 2.^ C > q , > t D y 9 : O X O O ",
"O X . . z K : J > B z K m 0 W A 5 7 S G 7 5 8 5 f s @.2.S S 2.5 A p e o.) D D J e.9 y q 0 z + . X O ",
"O X . O ! g y u j 0 -., : ~ S f D.8 D.8.c.x = c.6.i d.8.4.@.@.4.5 S r r -.L d v F g v 0 d Y . . . . ",
"O X . o w J 9 2 2 2 9 , 0.f S G 8 8.V U q.B =  .q !.V = = d.c s G S G ..} , y : 0 t M Z.a.. o . . X ",
"X . o @ o u. .9.#.b g f 5 s 2.D.d.= = t.9 v =  .2 t z.= d.V = 8.7 7 8 5 s l N.t &. .{ 7.. I o . X X ",
"X . o @ # # u.7.{ #.g 7 s f 5 U = = U , ).t U B 2 b  .= t.( V = i 5 5 7 s 8 ~ &.g.6 # $ $ # @ o . . ",
"X . o @ # $ $ k <.q.q S.@.f i = V V x &.b j t.{ b 2 D z.Y e.U i = 8.@.8 8 5 j.#.O.<.# % $ # @ o . . ",
"X . o @ # $ w W S.0.9 q.f i = = x i d M : K : ) 9 2 b B x , t.t.V V 8 f f S.D 9.l Z w & $ # @ o . X ",
"X . o @ # o ] r 8 c K K s c V V B B u 0 '.M j u b b b : ! 0 J d i = z.G @.q.j g.e l Y % % # @ o X X ",
"X . o @ # C p r @.c j.9 ~ `.= U y L ;.P.Y.h L 2 2 2 9 ;.I.L.M.y x = V o.O.u #.0.l l ] # % $ @ . . . ",
"X . o @ I Y a r S s O.9 , U = i #.r.Y.P.m._.r.b q m m .Xh  XoXr.7.= V ` H q.9.4.r a e @ % $ @ . . . ",
"X . o @ . <.i...G 7 l.M 0 J.U z.q m v.L.h P.r.2 L L j v.I.v.Y.r.> i U.1 $.9.g.J.f.Z W C % $ @ o . . ",
"X . o @ X ~ e 7 s J.b.>.' _ U.i &.q t ;.h ;.m ).K M 2 g m.m.z M &.i U.; W.M k.b.0.W e k % $ @ o . . ",
"X . o @ O W T ..=./ / b.` n P 7.g ~.;.M 0 &.u u &.&.u 0 e.F F , > 7.P - _ XXn.` 5.4 Z C % $ @ o . . ",
"X . o @ . :.T } b.` P [ ` n.n >.v ;._.L.v.M.h h h h h M.I.M.h '.F ( n ; Q / x.C.A 4 ] o $ # @ o . . ",
"X . o @ @ V.e E D.[ ` n.1 1 ; +.B > ~.m.%.) ) w.w.w.w.w.%.%.%.> B +.- ; / c 7 ..l ] w $ $ # @ . . . ",
"X . o @ @ I k e W f l.*.P 1 - _ c.e.{ ( k.G.Q.h.h.h.h.G.^.( ) -.c._ ; P l.s 2.W <.w % $ # # o . . . ",
"X X . o @ # # C :.o.G G 8 =.n ; *.5 z B G.].[.F.F.F.}.|.Q./.> 5 H ; P c 4.7 O.y.# & % $ # @ o . X O ",
"X X . o @ # $ $ o 6 c 7 8 o.*.1 1 =.o.v , , X.X.].X.X., > J ^ *.; n 5.5 4.p.w & 3 & $ # # @ o . X X ",
"O X . . @ # # $ % & # R p.^ D./ ; 1 =.c 0.v J > > J d -.<.x./ ; ; +.^ o.R & 3 3 & % $ # @ o . X X X ",
"O O X . o @ # # $ % & 3 % # R ( Q n 1 H =.`.J.6.6.6.J.x.+._ - - Q x & 3 N 3 3 3 % $ # @ @ o . X O O ",
"O O X . . o @ @ $ % & 3 3 3 N 3 [ n.- ; s.) !.K.K.K./. .H - n Q [ N N N 3 3 & & $ $ # @ o . X O O O ",
"+ O O X . o o @ # $ % & & 3 3 N x Q 1 $.s., -.j.9.j.-.^._ - 1 ` x N N 3 3 & & & $ # @ o o . X O + + ",
"+ + O X X . o o @ # $ % % & 3 N ( 1 $.(.H #.j q u u m A.; - - Q u.N 3 3 & % % % # @ o o . X O + + + ",
"+ + O O X . o o o @ # $ $ % & & +.1 H.P k., 9 2 y m t k.; - - 1 x N 3 & % $ $ $ @ @ o . . X O + + O ",
"      + O X . . o o @ # $ % & u._ 3.(.H g.z J q 0 , z R.1 - - ; >.3 & % $ $ # # o . . X X O + +     ",
"      + O X X . . o o @ # $ % ( 1 | | | q L Z.d d z : t T.- - - [ % % $ $ # @ @ . . . X O O + +     ",
"      + O O X X . . o o @ @ o +.; H.H.5.: M : {.X.v y > s.- - - / o $ # # @ o o . . X X O + + +     ",
"      + + O O O X X . . o @ X >.' [ ' { B.F F %.%.! F z { ' ' ' >.. # @ @ o o . X X X O + + +       ",
"        + + + + O X X . o o @ # # # $ $ $ $ # # # $ $ % % % $ $ $ # @ @ o . . . X O O + +           ",
"            + + O O O X . o o o @ @ @ # # # # # $ $ $ $ # # # # @ @ o o . . X X O O + +             ",
"                + + O O X X . . o o o @ @ @ @ o @ @ @ @ @ @ @ @ o o . . X X O O + + + +     6 6     ",
"                + + + O O O O X . . . o o o o . o o o o o o o o . . X X O O O + + + +       6 6     ",
"                    + + + + O O X . . . . . X . . . . . . . . . X O O O + + + +                     ",
"                6   + + + + O O O . . X . X X . . . . . . . . . O O O O + + + +                     "
};
