/* XPM */
static char *result[] = {
/* columns rows colors chars-per-pixel */
"50 50 28 1 ",
"  c #434146",
". c #4D4C53",
"X c #55555E",
"o c #55555F",
"O c #5B5B66",
"+ c #606069",
"@ c #666670",
"# c #676772",
"$ c #696A77",
"% c #71727F",
"& c #707180",
"* c #757787",
"= c #7F7F87",
"- c #7C7E8B",
"; c #7C7F90",
": c #838699",
"> c #8E8F9D",
", c #8A8FA3",
"< c #8D92A6",
"1 c #9095A8",
"2 c #A0A2B0",
"3 c #A3A7BF",
"4 c #ACB2CB",
"5 c #B6BBD3",
"6 c #B8BED9",
"7 c #BBC1DB",
"8 c #BEC4DF",
"9 c None",
/* pixels */
"99999999999999999999999999999999999999999999999999",
"99999999999999999999999999999999999999999999999999",
"99o====== O#############+.=============& ######.99",
"99&888887+;1111111111111:+78888888888883X<11111O99",
"99&766665O-,,,,,,,,,,,,,;+56666666666663X,,,,,,o99",
"99&766665O-,,,,,,,,,,,,,;+56666666666673X,,,,,<o99",
"99&666665O-,,,,,,,,,,,,,;+56666666666663X,,,,,,o99",
"99.$$$$$$ .XXXXXXXXXXXXX. $$$$$$$@$$$$$+ XXXXXX 99",
"99#2222222222222O@;-------------@O2222222222222#99",
"99&8777777777777$*<<<<<<<<<<<<<<*$7777777777778&99",
"99&7666666666666$%<,,,,,,,,,,,,<%$6666666666667&99",
"99&7666666666666$%<,,,,,,,,,,,,<%$6666666666667&99",
"99&7666666666666$%<,,,,,,,,,,,,<%$6666666666667&99",
"99&7666666666666$%<,,,,,,,,,,,,<%$6666666666667&99",
"99&7666666666667$%<,,,,,,,,,,,,<%$7666666666667&99",
"99#3333333333333+@;------;------@O3333333333333#99",
"99 @@@@@@.XOOOOO..XXXXXX. ++++++OO@@@@@+ OOOOOO 99",
"99&777776+;1<<<<11111111:+67777777777773X,1<<<1O99",
"99&766665O-,,,,,,,,,,,,,;+56666666666663X,,,,,,o99",
"99&766665O-,,,,,,,,,,,,,;+56666666666673X,,,,,<o99",
"99&766665O-,,,,,,,,,,,,,;+56666666666663X,,,,,,o99",
"99&766665O-,,,,,,,,,,,,,;+56666666666673X,,,,,<o99",
"99&766665O-,,,,,,,,,,,,,;+56666666666663X,,,,,,o99",
"99&766665+;<,,,,,,,,,,,<;+56666666666673X,,,,,<o99",
"99.****** XOOOOOOOOOOOOOX *************$ OOOOOO 99",
"99o>>>>>>>>>>>>>: $%%%%%%%%%%%%%.%>>>>>>>>>>>>>o99",
"99&88888888888885O:1<<<<<<<<<<<1+18888888888888&99",
"99&76666666666664X:,,,,,,,,,,,,,O<7666666666667&99",
"99&76666666666664X:,,,,,,,,,,,,,O<7666666666667&99",
"99&76666666666674X:,,,,,,,,,,,,,O<7666666666667&99",
"99&76666666666664X:,,,,,,,,,,,,,O<7666666666667&99",
"99&76666666666674X:,,,,,,,,,,,,<O17666666666667&99",
"99#44444444444443X-:::::::::::::X:4444444444444#99",
"99 ++++++.XOOOOOX ....... XXXXXX.X+++++O.OOOOOO 99",
"99&555555O->>>>>>><><><<;O55555555555552X>>>>>>o99",
"99&766665O;,,,,,,,,,,,,,;+56666666666673X,,,,,<o99",
"99&766665O-,,,,,,,,,,,,,;+56666666666663X,,,,,,o99",
"99&766665O-,,,,,,,,,,,,,;+56666666666673X,,,,,<o99",
"99&766665O-,,,,,,,,,,,,,;+56666666666663X,,,,,,o99",
"99&766665O-,,,,,,,,,,,,,;+56666666666663X,,,,,<o99",
"99&777776+;<,,,,,,,,,,,<;+67777777777773X,,,,,<O99",
"99o:::::: O$@@@@@$$$$$$$O.:::::::::::::* @@@@@$ 99",
"99o-------------* +@@@@@@@@@$@$$.@-------------o99",
"99&88888888888885O,1111111111111+18888888888888&99",
"99&76666666666664X:,,,,,,,,,,,,,O<7666666666667&99",
"99&76666666666664X:,,,,,,,,,,,,,O<7666666666667&99",
"99&66666666666664X:,,,,,,,,,,,,,O<6666666666666&99",
"99.############## .ooooooooooooo o#############.99",
"99999999999999999999999999999999999999999999999999",
"99999999999999999999999999999999999999999999999999"
};
